HIERARCHY
ROOT Hips
{
	OFFSET -3.958830 18.904000 13.208200
	CHANNELS 6 Xposition Yposition Zposition Zrotation Yrotation Xrotation 
	JOINT LHipJoint
	{
		OFFSET 0.000000 0.000000 0.000000
		CHANNELS 3 Zrotation Yrotation Xrotation
		JOINT LeftUpLeg
		{
			OFFSET 1.800000 -1.400000 0.085000
			CHANNELS 3 Zrotation Yrotation Xrotation
			JOINT LeftLeg
			{
				OFFSET 2.215000 -6.000000 0.000000
				CHANNELS 3 Zrotation Yrotation Xrotation
				JOINT LeftFoot
				{
					OFFSET 2.500000 -6.900000 0.000000
					CHANNELS 3 Zrotation Yrotation Xrotation
					JOINT LeftToeBase
					{
						OFFSET 0.200000 -0.500000 1.950000
						CHANNELS 3 Zrotation Yrotation Xrotation
						End Site
						{
							OFFSET 0.000000 0.000000 0.000000
						}
					}
				}
			}
		}
	}
	JOINT RHipJoint
	{
		OFFSET 0.000000 0.000000 0.000000
		CHANNELS 3 Zrotation Yrotation Xrotation
		JOINT RightUpLeg
		{
			OFFSET -1.800000 -1.400000 0.085000
			CHANNELS 3 Zrotation Yrotation Xrotation
			JOINT RightLeg
			{
				OFFSET -2.215000 -6.000000 0.000000
				CHANNELS 3 Zrotation Yrotation Xrotation
				JOINT RightFoot
				{
					OFFSET -2.500000 -6.900000 0.000000
					CHANNELS 3 Zrotation Yrotation Xrotation
					JOINT RightToeBase
					{
						OFFSET -0.200000 -0.500000 1.950000
						CHANNELS 3 Zrotation Yrotation Xrotation
						End Site
						{
							OFFSET 0.000000 0.000000 0.000000
						}
					}
				}
			}
		}
	}
	JOINT LowerBack
	{
		OFFSET 0.000000 0.000000 0.000000
		CHANNELS 3 Zrotation Yrotation Xrotation
		JOINT Spine
		{
			OFFSET -0.087000 1.940000 -0.288900
			CHANNELS 3 Zrotation Yrotation Xrotation
			JOINT Spine1
			{
				OFFSET 0.000000 1.950000 0.060000
				CHANNELS 3 Zrotation Yrotation Xrotation
				JOINT Neck
				{
					OFFSET 0.000000 0.000000 0.000000
					CHANNELS 3 Zrotation Yrotation Xrotation
					JOINT Neck1
					{
						OFFSET 0.000000 1.600000 0.340000
						CHANNELS 3 Zrotation Yrotation Xrotation
						JOINT Head
						{
							OFFSET 0.000000 1.667000 -0.240000
							CHANNELS 3 Zrotation Yrotation Xrotation
							End Site
							{
								OFFSET 0.000000 0.000000 0.000000
							}
						}
					}
				}
				JOINT LeftShoulder
				{
					OFFSET 0.000000 0.000000 0.000000
					CHANNELS 3 Zrotation Yrotation Xrotation
					JOINT LeftArm
					{
						OFFSET 2.700000 1.550000 -0.730000
						CHANNELS 3 Zrotation Yrotation Xrotation
						JOINT LeftForeArm
						{
							OFFSET 5.450000 0.000000 0.000000
							CHANNELS 3 Zrotation Yrotation Xrotation
							JOINT LeftHand
							{
								OFFSET 3.450000 0.000000 0.000000
								CHANNELS 3 Zrotation Yrotation Xrotation
								JOINT LeftHandIndex1
								{
									OFFSET 0.750000 0.000000 0.000000
									CHANNELS 3 Zrotation Yrotation Xrotation
									End Site
									{
										OFFSET 0.000000 0.000000 0.000000
									}
								}
							}
						}
					}
				}
				JOINT RightShoulder
				{
					OFFSET 0.000000 0.000000 0.000000
					CHANNELS 3 Zrotation Yrotation Xrotation
					JOINT RightArm
					{
						OFFSET -2.700000 1.550000 -0.730000
						CHANNELS 3 Zrotation Yrotation Xrotation
						JOINT RightForeArm
						{
							OFFSET -5.450000 0.000000 0.000000
							CHANNELS 3 Zrotation Yrotation Xrotation
							JOINT RightHand
							{
								OFFSET -3.450000 0.000000 0.000000
								CHANNELS 3 Zrotation Yrotation Xrotation
								JOINT RightHandIndex1
								{
									OFFSET -0.750000 0.000000 0.000000
									CHANNELS 3 Zrotation Yrotation Xrotation
									End Site
									{
										OFFSET 0.000000 0.000000 0.000000
									}
								}
							}
						}
					}
				}
			}
		}
	}
}
MOTION
Frames: 8
Frame Time: 0.016667
-0.569500 17.121130 -0.622220 4.528340 -43.537281 -15.817714 -15.624625 13.095555 5.707048 17.087556 -11.385683 -23.814415 -21.774678 31.008377 67.859809 2.143120 15.708016 -0.643197 0.616560 0.174210 0.916800 18.014715 -9.623684 0.876274 -7.911176 0.108972 -12.209907 -7.631608 -5.164261 41.661455 -0.885675 -5.564373 2.424395 -0.059780 -0.325230 0.283250 -1.468149 -5.737421 -8.626025 2.313359 -0.419814 42.439037 10.212265 0.101979 17.065004 0.123970 -8.304892 -15.527328 -23.165021 14.591775 45.062229 -24.063930 15.486780 -28.589150 -8.441176 -20.231687 10.508701 -17.768886 -4.776066 -9.671513 111.797686 -72.295815 -109.531370 -3.604426 2.059091 0.939780 -0.243170 0.432800 0.018650 8.590048 29.208904 9.294647 42.065240 20.031613 -8.961843 -13.218281 24.324407 -4.120227 2.236503 -1.178139 -0.088880 0.056730 -0.187330 -0.425930 
-0.542650 17.031610 -0.621010 3.337569 -45.611193 -16.678735 -15.404220 13.301943 5.129400 16.946555 -9.180935 -19.961201 -15.832778 27.773139 69.028079 1.970650 15.127264 -0.538470 0.725290 0.279270 1.018930 18.131405 -9.989862 1.227668 -7.845659 1.371172 -12.523560 -6.481415 -5.636641 44.613681 -1.019714 -6.075302 2.200600 -0.000570 -0.402480 0.325270 -2.041253 -4.953065 -8.386620 6.619219 -2.123519 43.006647 6.419264 -0.669689 17.316785 0.775742 -8.426633 -15.039471 -22.616140 15.179389 44.232110 -24.071740 15.735950 -27.554370 -8.484734 -21.330250 8.822190 -20.249686 0.852436 -18.458620 56.238643 -71.021288 -44.653040 -2.890365 2.199024 0.921340 -0.258610 0.481260 0.031570 7.153727 29.748115 9.587511 40.252086 20.965145 -8.999121 -17.589533 22.426067 -5.193330 2.271457 -1.304375 -0.029420 -0.017060 -0.266070 -0.433470 
-0.504040 16.962130 -0.590170 1.465452 -46.301070 -15.577918 -15.252523 13.447347 4.614001 17.385479 -7.156763 -17.918026 -12.082070 24.048419 66.297650 1.707116 14.033065 -0.290083 0.800330 0.404100 1.023120 18.200643 -10.314031 1.566371 -7.554553 2.479009 -13.103604 -5.109634 -6.150065 46.077623 -1.091373 -6.409496 2.067141 0.053650 -0.413430 0.382950 -2.637943 -4.122904 -8.105476 11.059701 -4.060730 41.600569 3.552764 -2.050013 18.548539 1.319353 -8.602169 -15.021740 -21.704144 15.643055 41.846266 -23.183210 16.118940 -25.563210 -7.344687 -21.048243 9.941093 -21.422884 1.372850 -15.914709 41.537704 -50.557564 -23.417010 -3.040834 2.989561 0.830670 -0.220960 0.498060 0.071770 5.100497 28.771388 8.463523 37.740137 23.065416 -8.971287 -21.855434 21.037614 -6.413946 2.298726 -1.444610 0.059090 -0.093480 -0.322430 -0.383770 
-0.469110 16.921140 -0.576910 -1.078512 -45.514949 -13.640241 -15.168113 13.507434 4.284071 19.407214 -5.400746 -17.305123 -10.625764 21.331240 61.371639 1.448162 12.892298 0.031161 0.792500 0.414570 1.001810 18.236103 -10.480108 1.850438 -6.899569 3.427996 -13.058711 -2.951633 -6.929040 46.182919 -1.102347 -6.535141 2.059045 0.044760 -0.379890 0.374760 -3.059180 -3.503789 -7.966624 14.581116 -5.839548 40.721719 0.686116 -3.084738 18.601945 2.528647 -8.135243 -15.107693 -19.346038 15.018569 40.376034 -22.372010 16.121750 -23.444160 -8.134057 -20.448385 10.927658 -16.200037 5.403722 -10.580906 29.729934 -32.836058 -10.516796 -3.179976 3.204280 0.762970 -0.193720 0.480130 0.108360 3.699404 27.394273 7.651359 34.277765 23.432447 -8.937953 -23.443923 21.776304 -7.020410 2.312941 -1.465570 0.080970 -0.097570 -0.359300 -0.340650 
-0.454070 16.903520 -0.587060 -3.632507 -43.481982 -10.411750 -15.156448 13.449069 4.127856 21.615812 -3.914208 -19.479164 -9.297047 18.863149 56.437247 1.182505 11.821008 0.327195 0.720590 0.308510 0.948930 18.246349 -10.481670 2.102711 -6.186916 4.299530 -13.570794 0.066077 -8.055885 45.223399 -1.052187 -6.605876 2.031038 -0.027810 -0.328110 0.430380 -3.276071 -3.061903 -7.987082 16.701022 -6.132922 38.622456 -0.549270 -2.896376 17.480413 3.473517 -6.365388 -14.454180 -14.160780 12.642857 38.900471 -22.776920 16.655850 -19.507060 -9.348643 -18.894091 10.762540 -8.777704 8.773807 -6.343110 20.252737 -26.124552 -5.078622 -3.278401 3.323773 0.673470 -0.125430 0.418210 0.111300 2.936126 24.655086 7.024725 31.125010 22.713741 -8.326369 -24.214407 22.777974 -7.193123 2.339656 -1.530109 0.107670 -0.198780 -0.350640 -0.313890 
-0.433400 16.922020 -0.602910 -5.613646 -40.561349 -6.822624 -15.135829 13.106778 4.172333 23.068033 -2.962001 -22.994312 -9.119011 17.491573 52.518081 0.977310 11.055007 0.539284 0.704000 0.310720 0.897110 18.315506 -10.503198 2.254780 -4.954481 4.653955 -14.433847 1.890911 -8.392528 42.820448 -0.964917 -6.360644 2.133248 -0.032680 -0.271550 0.453330 -3.630118 -2.337836 -7.996897 18.601805 -6.289014 35.754917 -1.233126 -2.804948 15.978717 3.283421 -5.177462 -12.891640 -10.700201 10.986970 36.526782 -22.204900 16.533580 -18.359910 -7.921185 -15.580976 9.264247 -5.081453 10.439563 -4.902788 13.708530 -28.325686 -3.331330 -3.291994 3.405011 0.589890 -0.069750 0.372040 0.140960 1.737576 20.193240 5.832961 28.895411 23.159823 -7.207530 -25.236191 24.053719 -7.502529 2.335244 -1.561489 0.131880 -0.231270 -0.358970 -0.273370 
-0.412050 17.009770 -0.595460 -7.157860 -39.620128 -4.435519 -15.117855 12.929301 4.209392 24.413510 -1.697431 -23.995821 -10.044706 17.247392 49.075185 0.848231 10.714545 0.683745 0.638510 0.242510 0.799490 18.365852 -10.532083 2.293186 -3.545122 4.516336 -13.217868 2.643171 -7.719111 38.115411 -0.808455 -5.708831 2.401505 -0.047600 -0.127320 0.445400 -3.832950 -1.934096 -7.951280 19.585565 -6.430262 35.023941 -1.559505 -2.574089 14.808498 2.874680 -6.208905 -12.159852 -11.867759 11.420277 33.424986 -20.376420 16.011950 -17.795490 -5.076014 -12.174620 8.265073 -7.631859 15.617405 -6.891450 11.386269 -38.665587 -4.166141 -3.296634 3.453623 0.567210 -0.011810 0.300830 0.175800 -0.264696 17.729286 5.097275 25.928457 23.590846 -8.051828 -28.618286 28.677080 -9.306642 2.225095 -1.522638 0.076680 -0.143840 -0.305010 -0.235220 
-0.397400 17.124240 -0.613070 -7.135706 -37.705091 -3.157221 -15.108339 12.717270 4.372651 24.848104 -1.068872 -25.381391 -12.009020 17.426867 46.107024 0.667887 10.546255 0.693881 0.627760 0.178220 0.783480 18.400361 -10.588004 2.238163 -3.061131 3.850280 -11.647293 2.635445 -6.832810 33.104415 -0.632484 -5.065744 2.593258 -0.024980 -0.100580 0.436710 -3.922252 -1.601291 -7.961416 19.097972 -5.324968 34.751788 -1.368473 -1.084579 13.530592 1.961242 -6.948773 -11.282753 -12.880083 10.544395 31.166685 -17.504540 13.954060 -17.480040 -2.592201 -8.521764 6.559707 -8.152420 16.306542 -7.693949 7.828249 -49.525385 -4.427698 -3.304887 3.608647 0.585540 -0.006500 0.215500 0.124480 -1.107548 15.109023 4.792826 23.775577 21.850600 -8.874774 -31.981493 32.370386 -10.927368 2.127212 -1.549889 0.022710 -0.153940 -0.238720 -0.278690 
